<svg viewBox="0 0 12 12" width="60px" height="60px" xmlns="http://www.w3.org/2000/svg"><path fill-rule="evenodd" d="M 0,0 3,0 3,1 9,1 9,0 12,0 12,12 8,12 8,11 4,11 4,12 0,12z" fill="#3FA6DA"/><path fill-rule="evenodd" d="M 1,1 2,1 2,2 1,2z" fill="#ffffff"/><path fill-rule="evenodd" d="M 10,1 11,1 11,2 10,2z" fill="#ffffff"/><path fill-rule="evenodd" d="M 4,2 8,2 8,3 4,3z" fill="#ffffff"/><path fill-rule="evenodd" d="M 2,3 4,3 4,5 3,5 3,4 2,4z" fill="#ffffff"/><path fill-rule="evenodd" d="M 8,3 10,3 10,4 9,4 9,5 8,5z" fill="#ffffff"/><path fill-rule="evenodd" d="M 1,4 2,4 2,5 1,5z" fill="#ffffff"/><path fill-rule="evenodd" d="M 10,4 11,4 11,5 10,5z" fill="#ffffff"/><path fill-rule="evenodd" d="M 4,5 5,5 5,7 7,7 7,5 8,5 8,8 9,8 9,9 8,9 8,10 7,10 7,8 5,8 5,10 4,10 4,9 3,9 3,8 4,8z" fill="#ffffff"/><path fill-rule="evenodd" d="M 1,7 2,7 2,8 1,8z" fill="#ffffff"/><path fill-rule="evenodd" d="M 10,7 11,7 11,8 10,8z" fill="#ffffff"/><path fill-rule="evenodd" d="M 1,10 3,10 3,11 1,11z" fill="#ffffff"/><path fill-rule="evenodd" d="M 9,10 11,10 11,11 9,11z" fill="#ffffff"/></svg>